<?xml version="1.0" encoding="utf-8"?><svg xmlns="http://www.w3.org/2000/svg" xmlns:xlink="http://www.w3.org/1999/xlink"><symbol fill="none" viewBox="0 0 48 48" id="aave" xmlns="http://www.w3.org/2000/svg"><path d="M24 47.28c12.857 0 23.28-10.423 23.28-23.28C47.28 11.143 36.857.72 24 .72 11.143.72.72 11.143.72 24 .72 36.857 11.143 47.28 24 47.28Z" fill="url(#aa)"/><path d="m34.188 33.276-7.872-19.032c-.444-.984-1.104-1.464-1.974-1.464h-.696c-.87 0-1.53.48-1.974 1.464l-3.426 8.292h-2.592a1.42 1.42 0 0 0-1.41 1.41v.018a1.424 1.424 0 0 0 1.41 1.41h1.392l-3.27 7.902a1.65 1.65 0 0 0-.096.54c0 .444.138.792.384 1.062s.6.402 1.044.402c.294-.006.576-.096.81-.27.252-.174.426-.426.564-.714l3.6-8.928h2.496a1.42 1.42 0 0 0 1.41-1.41v-.036a1.424 1.424 0 0 0-1.41-1.41h-1.332l2.748-6.846 7.488 18.624c.138.288.312.54.564.714.234.174.522.264.81.27.444 0 .792-.132 1.044-.402s.384-.618.384-1.062a1.259 1.259 0 0 0-.096-.534Z" fill="#fff"/><defs><linearGradient id="aa" x1="41.357" y1="9.395" x2="6.717" y2="38.542" gradientUnits="userSpaceOnUse"><stop stop-color="#B6509E"/><stop offset="1" stop-color="#2EBAC6"/></linearGradient></defs></symbol><symbol fill="none" viewBox="0 0 43 42" id="arbitrum" xmlns="http://www.w3.org/2000/svg"><path d="M21.333 42c11.708 0 21-9.478 21-21 0-11.708-9.478-21-21-21-11.708 0-21 9.478-21 21s9.478 21 21 21Z" fill="#2C374B"/><path fill-rule="evenodd" clip-rule="evenodd" d="M32.855 13.381c-.185-.186-9.292-5.575-10.407-5.947-.371-.186-1.3-.371-1.858-.186-.558.186-10.221 5.761-10.593 6.133-.186.186-.372.558-.558.743-.185.372-.185.558-.185 7.063v6.69l1.3.743c.744.372 1.301.744 1.301.744.186 0 8.92-13.939 8.92-14.124 0-.186-2.043-.186-2.601 0-.743.185-1.3.557-1.673.929-.185.186-1.3 2.044-2.787 4.088-1.301 2.045-2.416 3.903-2.416 3.903v-9.106l.186-.186c.371-.372 9.85-5.761 10.221-5.761.186 0 .372 0 2.602 1.3a49.653 49.653 0 0 1 4.46 2.602c1.673.93 3.16 1.859 3.345 2.045l.186.186v9.663l-4.646-7.247c-.186-.372-.372-.744-.558-.93 0 0-.185.372-1.3 2.23-.186.186-.372.558-.372.744l-.186.372.186.185.186.186s0 .186.186.186l.371.558s0 .185.186.185c.186.186.372.558.372.744v.186l3.902 6.318-.371.186c-.186.186-.372.186-.558.186l-4.832-7.434-.186-.186-.371.744-1.859 2.973 3.717 5.947c-.557.372-3.717 2.602-3.902 2.602-.186 0-4.46-2.788-4.275-2.973 0 0 1.301-2.23 2.788-4.832 1.3-2.23 2.973-5.018 4.088-6.877 1.301-2.23 1.859-3.345 1.859-3.345H22.82l-4.274 7.062c-1.487 2.602-2.974 5.018-3.717 6.319-1.301.186-1.673.557-1.673.557l-.186.372 3.346 1.859c1.858 1.115 3.53 2.044 3.902 2.23.558.371 1.487.371 1.859.371.371-.185 10.035-5.76 10.593-6.132.185-.186.371-.372.557-.744l.186-.557V14.682l-.186-.372c0-.371-.371-.743-.371-.929Z" fill="#fff"/><path d="m31.926 24.717-5.575-8.548-2.044 3.345 5.39 8.734 2.415-1.115-.186-2.416ZM29.325 29.364l-5.576-8.55-2.416 3.718 4.46 7.062 2.788-1.115.744-1.115Z" fill="#24A2EE"/><path fill-rule="evenodd" clip-rule="evenodd" d="m11.112 15.054 10.221-5.947 10.222 5.947v11.894l-10.222 5.947-7.62-4.275-.928 1.673 8.363 4.832c.185.185.371.185.557 0l11.708-6.69c.186-.186.372-.372.372-.558v-13.38c0-.187-.186-.373-.372-.558l-11.708-6.69c-.186-.187-.372-.187-.557 0L9.439 13.752c-.185.186-.371.371-.371.557v13.38c0 .187.186.373.371.558l2.416 1.301 1.115-1.672-1.672-.93V15.055h-.186Z" fill="#98BCDC"/><path d="M25.793 15.053h-3.902l-9.107 14.868 3.16 1.858 9.85-16.726ZM15.944 16.54c.93-1.486 3.53-1.486 4.646-1.3l-8.92 14.31c-.372-.186-1.115-.558-1.673-.93-.743-.371-.93-.371-.93-.929v-.743c2.045-2.974 5.948-8.92 6.877-10.407Z" fill="#fff"/></symbol><symbol fill="none" viewBox="0 0 24 24" id="arrow-left" xmlns="http://www.w3.org/2000/svg"><path d="M19 12H5M12 5l-7 7 7 7" stroke="#FAFAFA" stroke-width="2" stroke-linecap="round" stroke-linejoin="round"/></symbol><symbol fill="none" viewBox="0 0 24 24" id="arrow-right" xmlns="http://www.w3.org/2000/svg"><path d="M5 12h14M12 5l7 7-7 7" stroke="#FAFAFA" stroke-width="2" stroke-linecap="round" stroke-linejoin="round"/></symbol><symbol fill="none" viewBox="0 0 24 16" id="burger" xmlns="http://www.w3.org/2000/svg"><path stroke="#202020" stroke-width="2" stroke-linecap="round" d="M1 1h22M1 8h22M1 15h22"/></symbol><symbol fill="none" viewBox="0 0 40 40" id="codesandbox" xmlns="http://www.w3.org/2000/svg"><path d="M35 26.667V13.333a3.333 3.333 0 0 0-1.667-2.883L21.667 3.784a3.334 3.334 0 0 0-3.334 0L6.667 10.45A3.333 3.333 0 0 0 5 13.334v13.333a3.333 3.333 0 0 0 1.667 2.883l11.666 6.667a3.333 3.333 0 0 0 3.334 0l11.666-6.667A3.334 3.334 0 0 0 35 26.667Z" stroke="#00C471" stroke-width="3" stroke-linecap="round" stroke-linejoin="round"/><path d="M12.5 7.017 20 11.35l7.5-4.333M12.5 32.983v-8.65L5 20M35 20l-7.5 4.333v8.65M5.45 11.6 20 20.017 34.55 11.6M20 36.8V20" stroke="#00C471" stroke-width="3" stroke-linecap="round" stroke-linejoin="round"/></symbol><symbol fill="none" viewBox="0 0 41 40" id="command" xmlns="http://www.w3.org/2000/svg"><path d="M30.667 5a5 5 0 0 0-5 5v20a5 5 0 1 0 5-5h-20a5 5 0 1 0 5 5V10a5 5 0 1 0-5 5h20a5 5 0 0 0 0-10Z" stroke="#00C471" stroke-width="3" stroke-linecap="round" stroke-linejoin="round"/></symbol><symbol viewBox="0 0 28 22" id="dc" xmlns="http://www.w3.org/2000/svg"><path d="M23.703 2.242A23.325 23.325 0 0 0 18.004.503a.087.087 0 0 0-.092.042c-.245.43-.518.992-.71 1.435a21.66 21.66 0 0 0-6.4 0c-.213-.491-.454-.97-.72-1.435A.09.09 0 0 0 9.99.501c-2 .338-3.913.933-5.699 1.74a.082.082 0 0 0-.037.031C.624 7.609-.372 12.815.117 17.954a.094.094 0 0 0 .036.065 23.365 23.365 0 0 0 6.992 3.476.092.092 0 0 0 .098-.03 16.13 16.13 0 0 0 1.43-2.29.086.086 0 0 0-.048-.122 15.4 15.4 0 0 1-2.184-1.024.087.087 0 0 1-.01-.146c.148-.108.295-.221.435-.334a.087.087 0 0 1 .09-.012c4.582 2.058 9.544 2.058 14.071 0a.088.088 0 0 1 .092.01c.14.115.286.228.434.336a.086.086 0 0 1 .036.075.087.087 0 0 1-.043.071c-.697.401-1.423.74-2.185 1.023a.088.088 0 0 0-.057.087c0 .012.004.025.01.036.42.801.9 1.564 1.428 2.289a.09.09 0 0 0 .098.032 23.286 23.286 0 0 0 7.002-3.477.089.089 0 0 0 .038-.063c.583-5.943-.978-11.106-4.14-15.682a.07.07 0 0 0-.037-.032ZM9.358 14.825c-1.38 0-2.517-1.248-2.517-2.777 0-1.53 1.116-2.776 2.517-2.776 1.411 0 2.538 1.256 2.516 2.776 0 1.53-1.115 2.777-2.516 2.777Zm9.303 0c-1.38 0-2.516-1.248-2.516-2.777 0-1.53 1.114-2.776 2.516-2.776 1.412 0 2.539 1.256 2.516 2.776 0 1.53-1.103 2.777-2.516 2.777Z"/></symbol><symbol fill="none" viewBox="0 0 49 48" id="discord" xmlns="http://www.w3.org/2000/svg"><path d="M38.922 11.552A33.363 33.363 0 0 0 30.648 9a18.215 18.215 0 0 0-1.042 2.148 31.523 31.523 0 0 0-9.167 0c-.277-.66-.702-1.51-1.043-2.148a32.82 32.82 0 0 0-8.274 2.552C5.89 19.273 4.465 26.824 5.167 34.27c3.488 2.53 6.828 4.062 10.124 5.083a25.246 25.246 0 0 0 2.17-3.488c-1.191-.447-2.319-1-3.425-1.638.277-.212.575-.425.83-.638 6.594 3.02 13.74 3.02 20.249 0 .276.213.553.447.83.638a22.02 22.02 0 0 1-3.425 1.638 23.368 23.368 0 0 0 2.17 3.488c3.296-1.02 6.678-2.552 10.124-5.083.872-8.615-1.361-16.102-5.892-22.717ZM18.376 29.674c-1.979 0-3.595-1.808-3.595-3.998 0-2.191 1.574-4 3.594-4 2 0 3.638 1.809 3.595 4 0 2.212-1.595 3.998-3.595 3.998Zm13.272 0c-1.978 0-3.595-1.808-3.595-3.998 0-2.191 1.574-4 3.595-4 2 0 3.637 1.809 3.595 4 .02 2.212-1.553 3.998-3.595 3.998Z" fill="#5868EA"/></symbol><symbol viewBox="0 0 27 20" id="discord-main" xmlns="http://www.w3.org/2000/svg"><path d="M22.55 1.682A21.473 21.473 0 0 0 17.17 0c-.235.406-.497.967-.677 1.416a20.216 20.216 0 0 0-5.959 0C10.355.98 10.08.42 9.858 0A21.122 21.122 0 0 0 4.48 1.682C1.078 6.769.152 11.745.608 16.65 2.876 18.318 5.046 19.327 7.19 20c.526-.715.996-1.486 1.41-2.299a14.86 14.86 0 0 1-2.225-1.079c.18-.14.373-.28.539-.42 4.286 1.99 8.931 1.99 13.162 0 .18.14.36.294.539.42-.705.42-1.452.785-2.226 1.08.4.812.885 1.583 1.41 2.298a21.658 21.658 0 0 0 6.581-3.35c.567-5.676-.885-10.61-3.83-14.968ZM9.193 13.623c-1.286 0-2.336-1.191-2.336-2.635 0-1.444 1.023-2.635 2.336-2.635 1.3 0 2.364 1.191 2.337 2.635 0 1.458-1.037 2.635-2.337 2.635Zm8.627 0c-1.286 0-2.336-1.191-2.336-2.635 0-1.444 1.023-2.635 2.336-2.635 1.3 0 2.364 1.191 2.337 2.635.014 1.458-1.01 2.635-2.337 2.635Z"/></symbol><symbol fill="none" viewBox="0 0 27 42" id="ethereum" xmlns="http://www.w3.org/2000/svg"><g clip-path="url(#ka)"><path d="m13.222 0-.282.957v27.765l.282.281 12.888-7.618L13.222 0Z" fill="#343434"/><path d="M13.222 0 .333 21.385l12.889 7.618V0Z" fill="#8C8C8C"/><path d="m13.222 31.444-.16.193v9.89l.16.464 12.896-18.162-12.896 7.614Z" fill="#3C3C3B"/><path d="M13.222 41.99V31.443L.333 23.829 13.222 41.99Z" fill="#8C8C8C"/><path d="m13.222 29.003 12.888-7.618-12.888-5.858v13.476Z" fill="#141414"/><path d="m.333 21.385 12.889 7.618V15.527L.333 21.385Z" fill="#393939"/></g><defs><clipPath id="ka"><path fill="#fff" transform="translate(.333)" d="M0 0h25.784v42H0z"/></clipPath></defs></symbol><symbol fill="none" viewBox="0 0 48 48" id="fox" xmlns="http://www.w3.org/2000/svg"><path d="m41.296 5.349-14.99 11.133 2.771-6.568 12.219-4.565Z" fill="#E2761B" stroke="#E2761B" stroke-width=".151" stroke-linecap="round" stroke-linejoin="round"/><path d="m6.69 5.349 14.87 11.239-2.637-6.674L6.689 5.349Zm29.212 25.808-3.992 6.116 8.542 2.35 2.456-8.33-7.006-.136Zm-30.795.135 2.441 8.332 8.542-2.35-3.992-6.117-6.99.135Z" fill="#E4761B" stroke="#E4761B" stroke-width=".151" stroke-linecap="round" stroke-linejoin="round"/><path d="m15.608 20.821-2.38 3.6 8.482.378-.301-9.115-5.8 5.137Zm16.769 0L26.5 15.578l-.196 9.22 8.467-.376-2.395-3.6ZM16.09 37.273l5.093-2.486-4.4-3.435-.693 5.921Zm10.712-2.486 5.108 2.486-.709-5.92-4.399 3.434Z" fill="#E4761B" stroke="#E4761B" stroke-width=".151" stroke-linecap="round" stroke-linejoin="round"/><path d="m31.91 37.273-5.108-2.486.407 3.33-.045 1.4 4.746-2.244Zm-15.82 0 4.746 2.245-.03-1.401.377-3.33-5.093 2.486Z" fill="#D7C1B3" stroke="#D7C1B3" stroke-width=".151" stroke-linecap="round" stroke-linejoin="round"/><path d="m20.911 29.152-4.248-1.25 2.998-1.371 1.25 2.621Zm6.162 0 1.25-2.621 3.014 1.37-4.264 1.251Z" fill="#233447" stroke="#233447" stroke-width=".151" stroke-linecap="round" stroke-linejoin="round"/><path d="m16.09 37.273.724-6.117-4.716.136 3.992 5.981Zm15.096-6.117.724 6.117 3.992-5.981-4.716-.136Zm3.586-6.734-8.467.377.784 4.354 1.25-2.622 3.013 1.371 3.42-3.48Zm-18.11 3.48 3.014-1.37 1.236 2.62.798-4.354-8.482-.376 3.435 3.48Z" fill="#CD6116" stroke="#CD6116" stroke-width=".151" stroke-linecap="round" stroke-linejoin="round"/><path d="m13.228 24.422 3.555 6.93-.12-3.45-3.435-3.48Zm18.124 3.48-.15 3.45 3.57-6.93-3.42 3.48Zm-9.642-3.104-.799 4.355.995 5.137.226-6.764-.422-2.727Zm4.595 0-.407 2.712.181 6.78 1.01-5.137-.784-4.354Z" fill="#E4751F" stroke="#E4751F" stroke-width=".151" stroke-linecap="round" stroke-linejoin="round"/><path d="M27.088 29.153 26.08 34.29l.723.498 4.4-3.436.15-3.45-4.264 1.25Zm-10.425-1.25.12 3.45 4.4 3.434.723-.497-.995-5.137-4.248-1.25Z" fill="#F6851B" stroke="#F6851B" stroke-width=".151" stroke-linecap="round" stroke-linejoin="round"/><path d="m27.164 39.518.045-1.401-.377-.332h-5.68l-.346.332.03 1.4-4.746-2.244 1.658 1.356 3.36 2.335h5.77l3.374-2.335 1.658-1.356-4.746 2.245Z" fill="#C0AD9E" stroke="#C0AD9E" stroke-width=".151" stroke-linecap="round" stroke-linejoin="round"/><path d="m26.802 34.787-.723-.497h-4.173l-.723.497-.377 3.33.346-.332h5.68l.377.332-.407-3.33Z" fill="#161616" stroke="#161616" stroke-width=".151" stroke-linecap="round" stroke-linejoin="round"/><path d="m41.928 17.206 1.281-6.147-1.913-5.71-14.494 10.757 5.575 4.715 7.88 2.305 1.747-2.034-.753-.542 1.205-1.1-.934-.723 1.205-.919-.799-.602ZM4.791 11.059l1.28 6.147-.813.602 1.205.92-.919.722 1.206 1.1-.754.543 1.733 2.033 7.88-2.305 5.574-4.715L6.689 5.349l-1.898 5.71Z" fill="#763D16" stroke="#763D16" stroke-width=".151" stroke-linecap="round" stroke-linejoin="round"/><path d="m40.256 23.126-7.88-2.305 2.396 3.6-3.57 6.93 4.7-.06h7.006l-2.652-8.165ZM15.608 20.82l-7.88 2.305-2.62 8.166h6.99l4.685.06-3.555-6.93 2.38-3.601Zm10.697 3.977.497-8.693 2.29-6.192h-10.17l2.26 6.192.528 8.693.18 2.742.016 6.75h4.173l.03-6.75.196-2.742Z" fill="#F6851B" stroke="#F6851B" stroke-width=".151" stroke-linecap="round" stroke-linejoin="round"/></symbol><symbol viewBox="0 0 24 24" id="g-hub" xmlns="http://www.w3.org/2000/svg"><path fill-rule="evenodd" clip-rule="evenodd" d="M12 0C5.372 0 0 5.38 0 12.02a12.02 12.02 0 0 0 8.207 11.405c.6.11.818-.26.818-.58 0-.284-.01-1.041-.015-2.043-3.339.726-4.043-1.612-4.043-1.612-.545-1.39-1.332-1.759-1.332-1.759-1.09-.744.083-.73.083-.73 1.203.085 1.837 1.239 1.837 1.239 1.07 1.836 2.809 1.306 3.492.998.11-.776.42-1.305.763-1.605-2.664-.304-5.466-1.336-5.466-5.941 0-1.312.468-2.386 1.235-3.226-.124-.304-.535-1.526.117-3.18 0 0 1.008-.324 3.3 1.231A11.477 11.477 0 0 1 12 5.813c1.02.005 2.046.138 3.005.404 2.29-1.555 3.296-1.232 3.296-1.232.655 1.655.243 2.877.12 3.181.768.84 1.234 1.914 1.234 3.226 0 4.617-2.807 5.634-5.48 5.931.431.371.814 1.104.814 2.226 0 1.606-.014 2.903-.014 3.297 0 .321.216.696.825.578A12.023 12.023 0 0 0 24 12.02C24 5.38 18.626 0 12 0Z"/></symbol><symbol fill="none" viewBox="0 0 40 40" id="git" xmlns="http://www.w3.org/2000/svg"><path d="M30 35a5 5 0 1 0 0-10 5 5 0 0 0 0 10ZM10 15a5 5 0 1 0 0-10 5 5 0 0 0 0 10ZM21.667 10h5A3.333 3.333 0 0 1 30 13.333V25M10 15v20" stroke="#00C471" stroke-width="3" stroke-linecap="round" stroke-linejoin="round"/></symbol><symbol fill="none" viewBox="0 0 41 40" id="globe" xmlns="http://www.w3.org/2000/svg"><path d="M20.667 36.667c9.204 0 16.666-7.462 16.666-16.667 0-9.205-7.462-16.666-16.666-16.666C11.462 3.334 4 10.795 4 20s7.462 16.667 16.667 16.667ZM4 20h33.333" stroke="#00C471" stroke-width="3" stroke-linecap="round" stroke-linejoin="round"/><path d="M20.667 3.333A25.5 25.5 0 0 1 27.333 20a25.5 25.5 0 0 1-6.666 16.667A25.5 25.5 0 0 1 14 20a25.5 25.5 0 0 1 6.667-16.666Z" stroke="#00C471" stroke-width="3" stroke-linecap="round" stroke-linejoin="round"/></symbol><symbol fill="none" viewBox="0 0 41 40" id="layers" xmlns="http://www.w3.org/2000/svg"><path d="M20.333 3.333 3.667 11.668 20.333 20 37 11.667 20.333 3.333ZM3.667 28.334l16.666 8.333L37 28.333M3.667 20l16.666 8.333L37 20" stroke="#00C471" stroke-width="3" stroke-linecap="round" stroke-linejoin="round"/></symbol><symbol fill="none" viewBox="0 0 38 32" id="liquity" xmlns="http://www.w3.org/2000/svg"><path d="M16.043 31.808c8.743 0 15.831-7.088 15.831-15.831 0-8.744-7.088-15.831-15.831-15.831C7.3.146.212 7.233.212 15.976c0 8.744 7.088 15.832 15.831 15.832Z" fill="#2EB6EA"/><path d="M15.951 31.831C.19 31.831-6.02 11.097 7.887 2.368c-1.65 17.32 7.148 17.71 15.327 17.32 13.678-.64 13.7 12.143 13.7 12.143H15.952Z" fill="#1542CD"/><path fill-rule="evenodd" clip-rule="evenodd" d="M31.004 21.178A16.79 16.79 0 0 1 15.86 31.854H37.167s0-7.492-6.163-10.676Z" fill="#745DDF"/></symbol><symbol fill="none" viewBox="0 0 118 40" id="logo" xmlns="http://www.w3.org/2000/svg"><path d="M0 9.136C0 4.336 3.891.444 8.691.444H30.42c4.8 0 8.691 3.892 8.691 8.692v21.728c0 4.8-3.891 8.692-8.691 8.692H8.69A8.691 8.691 0 0 1 0 30.864V9.136Z" fill="#00C471"/><path d="M24.022 12.954v4.297c-2.471 0-4.466 1.919-4.466 4.296H15.2a.109.109 0 0 1-.111-.108c.06-4.69 4.042-8.485 8.932-8.485ZM32.955 21.547h-4.467c0-2.377-1.995-4.296-4.466-4.296v-4.297c4.928 0 8.933 3.853 8.933 8.593ZM24.022 30.14v-4.296c2.471 0 4.466-1.92 4.466-4.297h4.467c0 4.755-4.005 8.593-8.933 8.593ZM15.09 30.14v-4.296c2.47 0 4.466-1.92 4.466-4.297h4.354a.11.11 0 0 1 .111.108c-.06 4.705-4.041 8.485-8.932 8.485ZM6.156 21.547h4.467c0 2.378 1.995 4.297 4.466 4.297v4.296c-4.928 0-8.933-3.838-8.933-8.593Z" fill="#FAFAFA"/><path d="M15.09 12.954v4.297c-2.472 0-4.467 1.919-4.467 4.296H6.156c0-4.74 4.005-8.593 8.933-8.593ZM19.388 7.07c0-.059.05-.107.112-.107h4.398a.11.11 0 0 1 .111.108v4.915a.11.11 0 0 1-.111.108 10.65 10.65 0 0 0-4.348.968c-.075.034-.162-.018-.162-.098V7.071Z" fill="#FAFAFA"/><path d="M18.518 13.685c.031-.02.05-.053.05-.09v-.533a.11.11 0 0 0-.112-.107H14.99v4.297h.134a.19.19 0 0 0 .167-.098 9.664 9.664 0 0 1 3.227-3.469ZM20.556 29.41a.107.107 0 0 0-.05.089v.533c0 .06.05.108.112.108h3.466v-4.297h-.134a.19.19 0 0 0-.167.098 9.662 9.662 0 0 1-3.227 3.468Z" fill="#FAFAFA"/><path d="M62.882 8.758h3.455v22.397h-3.455V28.85c-1.302 1.813-3.168 2.72-5.6 2.72-2.197 0-4.074-.81-5.63-2.432-1.558-1.642-2.337-3.637-2.337-5.983 0-2.368.78-4.362 2.336-5.983 1.557-1.621 3.434-2.432 5.631-2.432 2.432 0 4.298.896 5.6 2.688V8.758ZM54.21 26.835c.96.96 2.165 1.44 3.615 1.44 1.45 0 2.656-.48 3.616-1.44.96-.98 1.44-2.207 1.44-3.68 0-1.47-.48-2.687-1.44-3.647-.96-.98-2.165-1.471-3.616-1.471-1.45 0-2.655.49-3.615 1.471-.96.96-1.44 2.176-1.44 3.648s.48 2.698 1.44 3.68ZM73.628 12.117c-.426.427-.938.64-1.535.64-.598 0-1.12-.213-1.568-.64a2.202 2.202 0 0 1-.64-1.567c0-.598.213-1.11.64-1.536.426-.448.949-.672 1.567-.672.62 0 1.142.224 1.568.672.427.427.64.938.64 1.536 0 .597-.224 1.12-.672 1.567Zm-3.263 19.038V15.157h3.455v15.998h-3.455ZM86.76 18.485h-3.968v7.678c0 .662.149 1.142.448 1.44.298.278.736.438 1.312.48.597.022 1.333.01 2.207-.032v3.104c-2.645.32-4.543.096-5.695-.672-1.152-.79-1.728-2.23-1.728-4.32v-7.678h-2.943v-3.328h2.943v-3.455l3.456-1.024v4.48h3.967v3.327ZM98.07 18.485h-3.967v7.678c0 .662.149 1.142.448 1.44.298.278.735.438 1.311.48.598.022 1.334.01 2.208-.032v3.104c-2.645.32-4.543.096-5.695-.672-1.152-.79-1.728-2.23-1.728-4.32v-7.678h-2.944v-3.328h2.944v-3.455l3.456-1.024v4.48h3.967v3.327ZM108.099 31.57c-2.346 0-4.341-.81-5.983-2.43-1.643-1.622-2.464-3.616-2.464-5.984s.821-4.362 2.464-5.983c1.642-1.621 3.637-2.432 5.983-2.432 2.368 0 4.362.81 5.983 2.432 1.642 1.62 2.464 3.615 2.464 5.983 0 2.368-.822 4.362-2.464 5.983-1.621 1.621-3.615 2.432-5.983 2.432Zm-3.552-4.799c.96.96 2.144 1.44 3.552 1.44s2.591-.48 3.551-1.44 1.44-2.165 1.44-3.615c0-1.45-.48-2.656-1.44-3.616s-2.143-1.44-3.551-1.44c-1.408 0-2.592.48-3.552 1.44-.959.96-1.439 2.166-1.439 3.616 0 1.45.48 2.656 1.439 3.615Z" fill="#202020"/></symbol><symbol fill="none" viewBox="0 0 133 46" id="logo-f" xmlns="http://www.w3.org/2000/svg"><path d="M1 10.278C1 4.878 5.378.5 10.778.5h24.444C40.622.5 45 4.878 45 10.278v24.444c0 5.4-4.378 9.778-9.778 9.778H10.778C5.378 44.5 1 40.122 1 34.722V10.278Z" fill="#00C471"/><path d="M28.025 14.574v4.833c-2.78 0-5.025 2.16-5.025 4.834h-4.899a.123.123 0 0 1-.125-.122c.068-5.277 4.547-9.545 10.049-9.545ZM38.074 24.24H33.05c0-2.674-2.244-4.833-5.024-4.833v-4.833c5.544 0 10.05 4.334 10.05 9.667ZM28.025 33.908v-4.834c2.78 0 5.024-2.159 5.024-4.833h5.025c0 5.349-4.505 9.667-10.05 9.667ZM17.975 33.908v-4.834c2.78 0 5.025-2.159 5.025-4.833h4.899c.07 0 .126.055.125.121-.068 5.293-4.547 9.546-10.049 9.546ZM7.926 24.24h5.025c0 2.675 2.244 4.834 5.024 4.834v4.834c-5.544 0-10.05-4.318-10.05-9.667Z" fill="#FAFAFA"/><path d="M17.975 14.574v4.833c-2.78 0-5.024 2.16-5.024 4.834H7.926c0-5.333 4.505-9.667 10.05-9.667ZM22.811 7.955c0-.067.057-.122.126-.122h4.948c.07 0 .126.055.126.122v5.53a.125.125 0 0 1-.126.121 11.98 11.98 0 0 0-4.89 1.089c-.085.038-.184-.02-.184-.11v-6.63Z" fill="#FAFAFA"/><path d="M21.833 15.396a.12.12 0 0 0 .056-.1v-.6a.123.123 0 0 0-.126-.122h-3.9v4.835h.151a.213.213 0 0 0 .188-.11 10.873 10.873 0 0 1 3.631-3.903ZM24.125 33.085a.12.12 0 0 0-.056.101v.6c0 .067.057.122.126.122h3.9v-4.834h-.151a.213.213 0 0 0-.188.11 10.871 10.871 0 0 1-3.63 3.901ZM71.742 9.853h3.887v25.196h-3.887v-2.591c-1.464 2.04-3.564 3.059-6.3 3.059-2.471 0-4.583-.912-6.334-2.736-1.752-1.847-2.628-4.091-2.628-6.73 0-2.664.876-4.908 2.628-6.732 1.751-1.823 3.863-2.735 6.335-2.735 2.735 0 4.835 1.008 6.299 3.023V9.853ZM61.987 30.19c1.08 1.08 2.436 1.62 4.068 1.62 1.631 0 2.987-.54 4.067-1.62 1.08-1.104 1.62-2.484 1.62-4.14 0-1.655-.54-3.023-1.62-4.103-1.08-1.104-2.436-1.656-4.067-1.656-1.632 0-2.988.552-4.068 1.656-1.08 1.08-1.62 2.448-1.62 4.103 0 1.656.54 3.036 1.62 4.14ZM83.832 13.632c-.48.48-1.056.72-1.728.72-.672 0-1.26-.24-1.764-.72-.48-.504-.72-1.092-.72-1.764 0-.671.24-1.247.72-1.727a2.341 2.341 0 0 1 1.764-.756c.696 0 1.284.252 1.764.756.48.48.72 1.056.72 1.727 0 .672-.252 1.26-.756 1.764ZM80.16 35.05V17.052h3.888v17.997H80.16ZM98.604 20.795h-4.463v8.639c0 .744.168 1.284.504 1.62.336.312.828.492 1.475.54.672.024 1.5.012 2.484-.036v3.491c-2.975.36-5.111.108-6.407-.756-1.296-.888-1.944-2.507-1.944-4.86v-8.638h-3.311v-3.743h3.311v-3.888l3.888-1.152v5.04h4.463v3.743ZM111.329 20.795h-4.464v8.639c0 .744.168 1.284.504 1.62.336.312.828.492 1.476.54.672.024 1.5.012 2.484-.036v3.491c-2.976.36-5.111.108-6.407-.756-1.296-.888-1.944-2.507-1.944-4.86v-8.638h-3.312v-3.743h3.312v-3.888l3.887-1.152v5.04h4.464v3.743ZM122.611 35.517c-2.639 0-4.883-.912-6.731-2.736-1.848-1.823-2.771-4.067-2.771-6.73 0-2.664.923-4.908 2.771-6.732 1.848-1.823 4.092-2.735 6.731-2.735 2.664 0 4.907.912 6.731 2.735 1.848 1.824 2.772 4.068 2.772 6.731 0 2.664-.924 4.908-2.772 6.731-1.824 1.824-4.067 2.736-6.731 2.736Zm-3.995-5.4c1.08 1.08 2.411 1.62 3.995 1.62s2.916-.54 3.996-1.62c1.079-1.079 1.619-2.435 1.619-4.067 0-1.631-.54-2.987-1.619-4.067-1.08-1.08-2.412-1.62-3.996-1.62s-2.915.54-3.995 1.62-1.62 2.436-1.62 4.067c0 1.632.54 2.988 1.62 4.068Z" fill="#FAFAFA"/></symbol><symbol fill="none" viewBox="0 0 40 36" id="polygon" xmlns="http://www.w3.org/2000/svg"><path d="M30.265 11.23a2.7 2.7 0 0 0-2.54 0L22 14.614l-3.998 2.222-5.725 3.387a2.7 2.7 0 0 1-2.54 0l-4.55-2.647a2.541 2.541 0 0 1-1.27-2.119v-5.285a2.33 2.33 0 0 1 1.27-2.118l4.55-2.54a2.69 2.69 0 0 1 2.54 0l4.55 2.54a2.542 2.542 0 0 1 1.27 2.119v3.383L22 11.23V7.95a2.326 2.326 0 0 0-1.248-2.118L12.38.966a2.69 2.69 0 0 0-2.54 0L1.378 5.832A2.16 2.16 0 0 0 .003 7.951v9.838a2.328 2.328 0 0 0 1.27 2.107l8.464 4.878a2.7 2.7 0 0 0 2.54 0l5.725-3.28 3.914-2.328 5.705-3.27a2.7 2.7 0 0 1 2.54 0l4.55 2.54a2.539 2.539 0 0 1 1.268 2.118v5.185a2.328 2.328 0 0 1-1.269 2.116L30.16 30.5a2.69 2.69 0 0 1-2.539 0l-4.55-2.54a2.538 2.538 0 0 1-1.27-2.116v-3.398l-3.8 2.22v3.384a2.33 2.33 0 0 0 1.27 2.119l8.464 4.865a2.693 2.693 0 0 0 2.54 0l8.465-4.866A2.54 2.54 0 0 0 40 28.053V18.21a2.326 2.326 0 0 0-1.271-2.117l-8.464-4.864Z" fill="#7950DD"/></symbol><symbol fill="none" viewBox="0 0 49 48" id="tg" xmlns="http://www.w3.org/2000/svg"><g clip-path="url(#wa)"><path d="M24.667 0a24.007 24.007 0 0 0-24 24 24.007 24.007 0 0 0 24 24 24.007 24.007 0 0 0 24-24 24.007 24.007 0 0 0-24-24Z" fill="url(#wb)"/><path d="M11.53 23.747c6.998-3.048 11.663-5.058 13.995-6.029 6.668-2.772 8.052-3.254 8.955-3.27.2-.003.642.046.93.28.24.196.308.462.342.65.03.186.07.612.037.944-.36 3.795-1.924 13.004-2.719 17.255-.333 1.798-.997 2.401-1.638 2.46-1.395.129-2.453-.92-3.803-1.805-2.111-1.385-3.304-2.247-5.355-3.598-2.37-1.562-.832-2.42.518-3.823.352-.367 6.495-5.952 6.61-6.459.016-.063.03-.3-.112-.424-.138-.125-.345-.082-.495-.048-.213.048-3.585 2.278-10.125 6.69-.956.659-1.822.98-2.602.962-.855-.018-2.505-.484-3.731-.883-1.5-.488-2.697-.747-2.592-1.576.053-.432.65-.875 1.785-1.326Z" fill="#fff"/></g><defs><linearGradient id="wb" x1="2400.67" y1="0" x2="2400.67" y2="4800" gradientUnits="userSpaceOnUse"><stop stop-color="#2AABEE"/><stop offset="1" stop-color="#229ED9"/></linearGradient><clipPath id="wa"><path fill="#fff" transform="translate(.667)" d="M0 0h48v48H0z"/></clipPath></defs></symbol><symbol viewBox="0 0 24 24" id="tg-f" xmlns="http://www.w3.org/2000/svg"><path fill-rule="evenodd" clip-rule="evenodd" d="M24 12c0 6.627-5.373 12-12 12S0 18.627 0 12 5.373 0 12 0s12 5.373 12 12ZM12.43 8.859c-1.167.485-3.5 1.49-6.998 3.014-.568.226-.866.447-.893.663-.046.366.412.51 1.034.705.085.027.173.054.263.084.613.199 1.437.432 1.865.441.389.008.823-.152 1.302-.48 3.268-2.207 4.955-3.322 5.061-3.346.075-.017.179-.039.249.024.07.062.063.18.056.212-.046.193-1.84 1.862-2.77 2.726-.29.269-.495.46-.537.504-.094.097-.19.19-.282.279-.57.548-.996.96.024 1.632.49.323.882.59 1.273.856.427.291.853.581 1.405.943.14.092.274.187.405.28.497.355.944.673 1.496.623.32-.03.652-.331.82-1.23.397-2.126 1.179-6.73 1.36-8.628a2.112 2.112 0 0 0-.02-.472.506.506 0 0 0-.172-.325c-.143-.117-.365-.142-.465-.14-.451.008-1.143.249-4.476 1.635Z"/></symbol><symbol viewBox="0 0 25 20" id="tg-main" xmlns="http://www.w3.org/2000/svg"><path d="M2.15 8.563C8.593 5.756 12.89 3.906 15.037 3.01 21.177.46 22.451.015 23.283.001c.183-.004.59.041.857.256.22.182.283.427.314.599.027.172.065.564.034.87-.331 3.495-1.771 11.975-2.503 15.89-.308 1.655-.919 2.21-1.51 2.265-1.284.118-2.258-.848-3.5-1.663-1.945-1.275-3.043-2.069-4.932-3.313-2.182-1.438-.767-2.228.477-3.52.324-.338 5.98-5.481 6.088-5.948.013-.058.027-.276-.104-.39-.128-.116-.318-.076-.456-.045-.197.044-3.301 2.098-9.323 6.162-.881.605-1.679.9-2.397.885-.787-.017-2.307-.446-3.436-.813-1.381-.45-2.483-.688-2.386-1.452.048-.398.597-.805 1.644-1.221Z"/></symbol><symbol viewBox="0 0 24 24" id="tw" xmlns="http://www.w3.org/2000/svg"><g clip-path="url(#xa)"><path d="M7.551 21.75c9.054 0 14.008-7.504 14.008-14.008 0-.211-.004-.427-.014-.638a10 10 0 0 0 2.456-2.549c-.898.4-1.85.66-2.826.773a4.95 4.95 0 0 0 2.165-2.722A9.897 9.897 0 0 1 20.214 3.8a4.93 4.93 0 0 0-8.393 4.49A13.984 13.984 0 0 1 1.673 3.15a4.93 4.93 0 0 0 1.523 6.57 4.93 4.93 0 0 1-2.23-.614v.06a4.922 4.922 0 0 0 3.95 4.829 4.893 4.893 0 0 1-2.221.084 4.934 4.934 0 0 0 4.597 3.422 9.875 9.875 0 0 1-7.292 2.037 13.969 13.969 0 0 0 7.55 2.212Z"/></g><defs><clipPath id="xa"><path fill="#fff" transform="translate(.001)" d="M0 0h24v24H0z"/></clipPath></defs></symbol><symbol fill="none" viewBox="0 0 49 48" id="uniswap" xmlns="http://www.w3.org/2000/svg"><path d="M17.136 9.242c-.438-.068-.457-.076-.25-.108.395-.06 1.328.022 1.97.175 1.502.357 2.868 1.271 4.326 2.895l.387.43.554-.088c2.335-.375 4.71-.077 6.696.84.547.253 1.408.755 1.516.885.034.04.097.306.14.588.147.978.073 1.728-.226 2.288-.162.305-.172.401-.062.662a.64.64 0 0 0 .572.362c.494-.001 1.025-.799 1.271-1.91l.098-.44.194.22c1.062 1.203 1.897 2.845 2.04 4.014l.038.304-.179-.277c-.307-.477-.616-.801-1.012-1.063-.713-.471-1.467-.632-3.463-.737-1.803-.095-2.823-.25-3.835-.58-1.722-.56-2.59-1.308-4.635-3.991-.908-1.192-1.47-1.851-2.028-2.382-1.269-1.207-2.516-1.84-4.112-2.087Z" fill="#FF007A"/><path d="M32.742 11.903c.045-.799.153-1.326.371-1.807.086-.19.167-.346.18-.346.012 0-.026.14-.084.312-.158.467-.184 1.106-.075 1.849.138.942.217 1.078 1.213 2.096.468.478 1.011 1.08 1.208 1.339l.358.47-.358-.336c-.438-.41-1.446-1.212-1.668-1.327-.15-.077-.172-.075-.264.016-.084.085-.102.212-.114.811-.018.935-.146 1.535-.453 2.135-.167.324-.193.255-.042-.111.112-.274.123-.394.123-1.299-.002-1.818-.218-2.255-1.484-3.004-.32-.19-.849-.463-1.174-.608-.325-.144-.583-.27-.574-.28.036-.035 1.27.325 1.767.516.74.284.861.321.951.287.06-.023.09-.198.119-.713ZM17.987 15.013c-.89-1.224-1.44-3.102-1.32-4.506l.036-.434.203.037c.38.07 1.035.313 1.343.5.842.511 1.207 1.185 1.578 2.915.108.506.251 1.08.317 1.274.105.312.505 1.042.829 1.516.234.342.079.503-.438.457-.79-.072-1.858-.81-2.548-1.759ZM31.663 24.128c-4.158-1.674-5.622-3.127-5.622-5.578 0-.36.013-.656.028-.656.015 0 .176.12.357.265.843.676 1.787.965 4.4 1.346 1.538.224 2.404.405 3.202.67 2.537.842 4.107 2.55 4.482 4.875.108.676.045 1.944-.132 2.612-.139.527-.564 1.478-.676 1.515-.032.01-.062-.11-.07-.273-.043-.873-.485-1.723-1.226-2.36-.843-.725-1.975-1.301-4.743-2.416ZM28.744 24.824a7.366 7.366 0 0 0-.2-.88l-.107-.316.197.221c.273.306.488.698.671 1.22.14.397.155.516.154 1.163-.001.635-.018.768-.147 1.126a3.562 3.562 0 0 1-.878 1.396c-.759.773-1.735 1.2-3.144 1.378-.245.031-.959.083-1.586.116-1.582.082-2.623.252-3.558.58-.134.047-.255.076-.267.064-.038-.038.6-.417 1.125-.67.742-.358 1.48-.553 3.134-.828.817-.136 1.661-.301 1.875-.367 2.024-.62 3.064-2.222 2.731-4.203Z" fill="#FF007A"/><path d="M30.65 28.208c-.552-1.188-.68-2.334-.377-3.403.033-.114.085-.208.116-.208s.162.07.29.157c.254.171.765.46 2.125 1.201 1.697.926 2.664 1.642 3.322 2.46.577.717.933 1.534 1.105 2.53.097.564.04 1.92-.105 2.488-.456 1.791-1.516 3.197-3.029 4.018-.222.12-.42.22-.442.22-.022 0 .06-.205.18-.457.508-1.063.566-2.098.181-3.25-.235-.705-.715-1.565-1.685-3.02-1.127-1.69-1.404-2.14-1.681-2.736ZM15.035 34.614c1.543-1.302 3.462-2.227 5.21-2.512.754-.122 2.01-.073 2.707.105 1.119.286 2.12.928 2.64 1.691.508.747.726 1.397.953 2.845.09.571.188 1.144.217 1.274.17.75.503 1.35.914 1.651.653.478 1.778.508 2.885.076.188-.073.35-.124.362-.112.04.04-.517.413-.91.61-.529.263-.95.366-1.509.366-1.013 0-1.855-.516-2.557-1.567-.138-.207-.449-.827-.69-1.378-.742-1.69-1.108-2.206-1.969-2.77-.749-.49-1.715-.578-2.442-.222-.954.468-1.22 1.688-.537 2.462.272.307.778.572 1.193.623a1.274 1.274 0 0 0 1.442-1.276c0-.508-.196-.798-.688-1.02-.671-.303-1.393.051-1.39.682.002.27.119.438.389.56.173.079.177.085.036.056-.617-.128-.761-.871-.266-1.364.595-.593 1.826-.331 2.248.477.177.34.198 1.015.043 1.424-.346.914-1.356 1.394-2.38 1.133-.698-.178-.981-.371-1.822-1.237-1.461-1.505-2.029-1.797-4.135-2.126l-.404-.063.46-.388Z" fill="#FF007A"/><path fill-rule="evenodd" clip-rule="evenodd" d="M4.017.9C8.897 6.822 16.42 16.043 16.793 16.56c.308.426.192.81-.336 1.11-.294.166-.898.336-1.2.336-.342 0-.728-.165-1.008-.431-.199-.188-1-1.384-2.847-4.25-1.414-2.194-2.597-4.014-2.63-4.045-.074-.07-.072-.068 2.486 4.51 1.607 2.875 2.149 3.89 2.149 4.027 0 .276-.076.422-.417.802-.568.634-.822 1.347-1.006 2.821-.205 1.654-.784 2.822-2.386 4.82-.938 1.17-1.092 1.385-1.329 1.856-.298.594-.38.927-.413 1.676-.035.793.033 1.305.276 2.064.212.663.433 1.101.999 1.978.488.756.77 1.318.77 1.538 0 .175.033.175.79.004 1.81-.409 3.28-1.128 4.108-2.01.512-.545.632-.846.636-1.594.002-.489-.015-.591-.147-.872-.215-.458-.607-.839-1.47-1.43-1.131-.772-1.615-1.395-1.748-2.251-.11-.703.017-1.198.643-2.51.648-1.358.809-1.936.917-3.305.07-.884.167-1.232.421-1.512.265-.292.504-.391 1.16-.48 1.068-.147 1.749-.423 2.308-.939.486-.447.689-.878.72-1.527l.024-.491-.272-.317C17.01 14.992 3.36 0 3.3 0c-.013 0 .31.405.718.9Zm6.435 29.789a.87.87 0 0 0-.268-1.146c-.35-.234-.896-.124-.896.18 0 .093.051.16.167.22.195.1.209.213.056.443-.155.234-.143.439.035.578.287.225.693.101.906-.275ZM18.937 19.669c-.502.154-.99.685-1.14 1.243-.092.34-.04.937.098 1.121.223.298.438.377 1.022.372 1.143-.008 2.136-.498 2.252-1.11.094-.503-.342-1.199-.943-1.504-.31-.158-.97-.22-1.289-.122Zm1.336 1.044c.176-.25.1-.521-.2-.704-.571-.349-1.434-.06-1.434.48 0 .268.45.56.862.56.275 0 .65-.163.772-.336Z" fill="#FF007A"/></symbol><symbol fill="none" viewBox="0 0 41 40" id="zap" xmlns="http://www.w3.org/2000/svg"><path d="M22 3 5.333 23h15l-1.666 13.333 16.666-20h-15L22 3Z" stroke="#00C471" stroke-width="3" stroke-linecap="round" stroke-linejoin="round"/></symbol></svg>