<svg width="48" height="48" viewBox="0 0 48 48" fill="none" xmlns="http://www.w3.org/2000/svg">
<path d="M24 47.2802C36.8572 47.2802 47.28 36.8574 47.28 24.0002C47.28 11.143 36.8572 0.720215 24 0.720215C11.1428 0.720215 0.719971 11.143 0.719971 24.0002C0.719971 36.8574 11.1428 47.2802 24 47.2802Z" fill="url(#paint0_linear_67_1660)"/>
<path d="M34.188 33.2763L26.316 14.2443C25.872 13.2603 25.212 12.7803 24.342 12.7803H23.646C22.776 12.7803 22.116 13.2603 21.672 14.2443L18.246 22.5363H15.654C14.88 22.5423 14.25 23.1663 14.244 23.9463V23.9643C14.25 24.7383 14.88 25.3683 15.654 25.3743H17.046L13.776 33.2763C13.716 33.4503 13.68 33.6303 13.68 33.8163C13.68 34.2603 13.818 34.6083 14.064 34.8783C14.31 35.1483 14.664 35.2803 15.108 35.2803C15.402 35.2743 15.684 35.1843 15.918 35.0103C16.17 34.8363 16.344 34.5843 16.482 34.2963L20.082 25.3683H22.578C23.352 25.3623 23.982 24.7383 23.988 23.9583V23.9223C23.982 23.1483 23.352 22.5183 22.578 22.5123H21.246L23.994 15.6663L31.482 34.2903C31.62 34.5783 31.794 34.8303 32.046 35.0043C32.28 35.1783 32.568 35.2683 32.856 35.2743C33.3 35.2743 33.648 35.1423 33.9 34.8723C34.152 34.6023 34.284 34.2543 34.284 33.8103C34.29 33.6303 34.26 33.4443 34.188 33.2763Z" fill="white"/>
<defs>
<linearGradient id="paint0_linear_67_1660" x1="41.3572" y1="9.3954" x2="6.71656" y2="38.542" gradientUnits="userSpaceOnUse">
<stop stop-color="#B6509E"/>
<stop offset="1" stop-color="#2EBAC6"/>
</linearGradient>
</defs>
</svg>
