<svg width="43" height="42" viewBox="0 0 43 42" fill="none" xmlns="http://www.w3.org/2000/svg">
<path d="M21.3332 42.0004C33.0413 42.0004 42.3334 32.5224 42.3334 21.0002C42.3334 9.29212 32.8554 0 21.3332 0C9.62513 0 0.333008 9.47797 0.333008 21.0002C0.333008 32.5224 9.81097 42.0004 21.3332 42.0004Z" fill="#2C374B"/>
<path fill-rule="evenodd" clip-rule="evenodd" d="M32.8555 13.3812C32.6697 13.1953 23.5634 7.80589 22.4484 7.43421C22.0767 7.24837 21.1475 7.06252 20.5899 7.24837C20.0324 7.43421 10.3686 13.0095 9.99691 13.3812C9.81107 13.567 9.62523 13.9387 9.43938 14.1245C9.25354 14.4962 9.25354 14.6821 9.25354 21.1866V27.8769L10.5544 28.6202C11.2978 28.9919 11.8553 29.3636 11.8553 29.3636C12.0412 29.3636 20.7758 15.4254 20.7758 15.2396C20.7758 15.0537 18.7315 15.0537 18.174 15.2396C17.4306 15.4254 16.8731 15.7971 16.5014 16.1688C16.3156 16.3546 15.2005 18.2131 13.7138 20.2573C12.4129 22.3016 11.2978 24.16 11.2978 24.16C11.2978 24.16 11.2978 22.3016 11.2978 19.6998V15.0537L11.4837 14.8679C11.8553 14.4962 21.3333 9.10679 21.705 9.10679C21.8908 9.10679 22.0767 9.10679 24.3068 10.4077C25.0501 10.7794 27.0944 11.8944 28.767 13.0095C30.4396 13.9387 31.9263 14.8679 32.1122 15.0537L32.298 15.2396V24.9034L27.6519 17.6555C27.4661 17.2839 27.2803 16.9122 27.0944 16.7263C27.0944 16.7263 26.9086 17.098 25.7935 18.9564C25.6077 19.1423 25.4218 19.514 25.4218 19.6998L25.236 20.0715L25.4218 20.2573L25.6077 20.4432C25.6077 20.4432 25.6077 20.629 25.7935 20.629L26.1652 21.1866C26.1652 21.1866 26.1652 21.3724 26.351 21.3724C26.5369 21.5582 26.7227 21.9299 26.7227 22.1158C26.7227 22.1158 26.7227 22.1158 26.7227 22.3016L30.6254 28.6202L30.2537 28.8061C30.0679 28.9919 29.8821 28.9919 29.6962 28.9919L24.8643 21.5582L24.6785 21.3724L24.3068 22.1158L22.4484 25.0892L26.1652 31.0362C25.6077 31.4079 22.4484 33.638 22.2625 33.638C22.0767 33.638 17.8023 30.8504 17.9881 30.6645C17.9881 30.6645 19.289 28.4344 20.7758 25.8326C22.0767 23.6025 23.7492 20.8149 24.8643 18.9564C26.1652 16.7263 26.7227 15.6113 26.7227 15.6113C26.7227 15.6113 25.7935 15.6113 24.6785 15.6113H22.82L18.5457 22.6733C17.0589 25.2751 15.5722 27.691 14.8288 28.9919C13.5279 29.1778 13.1562 29.5495 13.1562 29.5495L12.9704 29.9211L16.3156 31.7796C18.174 32.8946 19.8466 33.8238 20.2182 34.0097C20.7758 34.3814 21.705 34.3814 22.0767 34.3814C22.4484 34.1955 32.1122 28.6202 32.6697 28.2486C32.8555 28.0627 33.0414 27.8769 33.2272 27.5052L33.4131 26.9477V20.8149V14.6821L33.2272 14.3104C33.2272 13.9387 32.8555 13.567 32.8555 13.3812Z" fill="white"/>
<path d="M31.9262 24.7172L26.3509 16.1685L24.3066 19.5136L29.6961 28.2482L32.112 27.1332L31.9262 24.7172Z" fill="#24A2EE"/>
<path d="M29.3246 29.3637L23.7493 20.8149L21.3334 24.5318L25.7936 31.5938L28.5812 30.4788L29.3246 29.3637Z" fill="#24A2EE"/>
<path fill-rule="evenodd" clip-rule="evenodd" d="M11.112 15.0537L21.3333 9.10669L31.5547 15.0537V26.9476L21.3333 32.8945L13.7138 28.6202L12.7846 30.2927L21.1475 35.1246C21.3333 35.3105 21.5192 35.3105 21.705 35.1246L33.4131 28.4343C33.5989 28.2485 33.7848 28.0626 33.7848 27.8768V14.4961C33.7848 14.3103 33.5989 14.1244 33.4131 13.9386L21.705 7.24827C21.5192 7.06243 21.3333 7.06243 21.1475 7.24827L9.43943 13.7528C9.25359 13.9386 9.06775 14.1244 9.06775 14.3103V27.6909C9.06775 27.8768 9.25359 28.0626 9.43943 28.2485L11.8554 29.5494L12.9704 27.8768L11.2979 26.9476V15.0537H11.112Z" fill="#98BCDC"/>
<path d="M25.7934 15.0532H21.8907L12.7844 29.9206L15.9437 31.779L25.7934 15.0532Z" fill="white"/>
<path d="M15.9439 16.5406C16.8731 15.0538 19.4749 15.0538 20.59 15.2397L11.6695 29.5495C11.2979 29.3637 10.5545 28.992 9.99696 28.6203C9.25359 28.2487 9.06775 28.2487 9.06775 27.6911V26.9478C11.112 23.9743 15.0147 18.0273 15.9439 16.5406Z" fill="white"/>
</svg>
