<svg width="41" height="40" viewBox="0 0 41 40" fill="none" xmlns="http://www.w3.org/2000/svg">
<path d="M30.6666 5C29.3405 5 28.0688 5.52678 27.1311 6.46447C26.1934 7.40215 25.6666 8.67392 25.6666 10V30C25.6666 31.3261 26.1934 32.5979 27.1311 33.5355C28.0688 34.4732 29.3405 35 30.6666 35C31.9927 35 33.2645 34.4732 34.2022 33.5355C35.1398 32.5979 35.6666 31.3261 35.6666 30C35.6666 28.6739 35.1398 27.4021 34.2022 26.4645C33.2645 25.5268 31.9927 25 30.6666 25H10.6666C9.34054 25 8.06877 25.5268 7.13109 26.4645C6.19341 27.4021 5.66663 28.6739 5.66663 30C5.66663 31.3261 6.19341 32.5979 7.13109 33.5355C8.06877 34.4732 9.34054 35 10.6666 35C11.9927 35 13.2645 34.4732 14.2022 33.5355C15.1398 32.5979 15.6666 31.3261 15.6666 30V10C15.6666 8.67392 15.1398 7.40215 14.2022 6.46447C13.2645 5.52678 11.9927 5 10.6666 5C9.34054 5 8.06877 5.52678 7.13109 6.46447C6.19341 7.40215 5.66663 8.67392 5.66663 10C5.66663 11.3261 6.19341 12.5979 7.13109 13.5355C8.06877 14.4732 9.34054 15 10.6666 15H30.6666C31.9927 15 33.2645 14.4732 34.2022 13.5355C35.1398 12.5979 35.6666 11.3261 35.6666 10C35.6666 8.67392 35.1398 7.40215 34.2022 6.46447C33.2645 5.52678 31.9927 5 30.6666 5Z" stroke="#00C471" stroke-width="3" stroke-linecap="round" stroke-linejoin="round"/>
</svg>
