<svg width="28" height="22" viewBox="0 0 28 22" xmlns="http://www.w3.org/2000/svg">
<path d="M23.7031 2.24166C21.9183 1.43671 20.0051 0.841753 18.0044 0.503442C17.9865 0.500021 17.9681 0.502225 17.9516 0.50975C17.9351 0.517274 17.9213 0.529746 17.9122 0.545439C17.6672 0.975911 17.3942 1.53704 17.2029 1.98034C15.081 1.66331 12.9237 1.66331 10.8018 1.98034C10.5887 1.48905 10.3484 1.01 10.082 0.545439C10.073 0.529553 10.0594 0.516799 10.0429 0.508878C10.0264 0.500957 10.0079 0.498247 9.98988 0.501108C7.99035 0.839419 6.07714 1.43438 4.29109 2.24049C4.27572 2.24694 4.2627 2.25793 4.25376 2.27199C0.62333 7.60914 -0.371772 12.8145 0.11703 17.9545C0.11839 17.9671 0.122297 17.9792 0.128515 17.9903C0.134732 18.0013 0.143129 18.0109 0.153194 18.0186C2.27218 19.5614 4.63563 20.7366 7.14457 21.4951C7.16206 21.5004 7.18076 21.5004 7.19825 21.495C7.21573 21.4896 7.23117 21.4791 7.24256 21.4647C7.78245 20.7427 8.26087 19.9767 8.6728 19.1747C8.67852 19.1637 8.68181 19.1517 8.68246 19.1393C8.68311 19.127 8.6811 19.1146 8.67657 19.1031C8.67203 19.0916 8.66508 19.0812 8.65618 19.0727C8.64727 19.0641 8.63663 19.0575 8.62497 19.0534C7.87136 18.7696 7.14117 18.4271 6.44111 18.0291C6.42853 18.0219 6.41794 18.0118 6.41027 17.9995C6.4026 17.9872 6.3981 17.9732 6.39717 17.9587C6.39625 17.9443 6.39893 17.9298 6.40497 17.9166C6.41101 17.9035 6.42022 17.892 6.43178 17.8833C6.57877 17.7748 6.72576 17.6616 6.86575 17.5485C6.87835 17.5383 6.89353 17.5318 6.9096 17.5298C6.92566 17.5277 6.94199 17.5302 6.95675 17.5368C11.5379 19.5947 16.4995 19.5947 21.027 17.5368C21.0418 17.5298 21.0583 17.527 21.0746 17.5289C21.0909 17.5307 21.1063 17.5371 21.1191 17.5473C21.2591 17.6616 21.405 17.7748 21.5531 17.8833C21.5648 17.8918 21.5742 17.9031 21.5804 17.9162C21.5866 17.9293 21.5895 17.9436 21.5888 17.9581C21.5881 17.9725 21.5839 17.9866 21.5764 17.999C21.569 18.0114 21.5586 18.0217 21.5461 18.0291C20.8485 18.4304 20.1229 18.7699 19.3611 19.0522C19.3494 19.0565 19.3387 19.0632 19.3298 19.0719C19.3209 19.0806 19.314 19.091 19.3095 19.1026C19.3049 19.1142 19.3029 19.1267 19.3036 19.1391C19.3042 19.1515 19.3075 19.1637 19.3133 19.1747C19.7332 19.9762 20.2139 20.7391 20.7423 21.4636C20.7533 21.4784 20.7686 21.4895 20.7862 21.4954C20.8037 21.5012 20.8226 21.5015 20.8403 21.4962C23.3536 20.7399 25.7209 19.5641 27.8422 18.0186C27.8526 18.0114 27.8612 18.002 27.8677 17.9912C27.8741 17.9803 27.8782 17.9682 27.8795 17.9556C28.4628 12.013 26.9019 6.84969 23.7393 2.27433C23.7316 2.25946 23.7187 2.24787 23.7031 2.24166ZM9.35759 14.8245C7.97868 14.8245 6.84125 13.5774 6.84125 12.048C6.84125 10.5174 7.95651 9.27153 9.35759 9.27153C10.7692 9.27153 11.8961 10.5279 11.8739 12.048C11.8739 13.5786 10.7587 14.8245 9.35759 14.8245ZM18.6611 14.8245C17.2811 14.8245 16.1448 13.5774 16.1448 12.048C16.1448 10.5174 17.2589 9.27153 18.6611 9.27153C20.0727 9.27153 21.1996 10.5279 21.1775 12.048C21.1775 13.5786 20.0739 14.8245 18.6611 14.8245Z" />
</svg>
