<svg width="49" height="48" viewBox="0 0 49 48" fill="none" xmlns="http://www.w3.org/2000/svg">
<path d="M38.9222 11.5524C36.306 10.3613 33.541 9.48921 30.6482 9C30.2866 9.61683 29.8825 10.4676 29.606 11.1483C26.5219 10.7016 23.4803 10.7016 20.4387 11.1483C20.1621 10.4889 19.7368 9.6381 19.3964 9C16.4824 9.48921 13.7174 10.3613 11.1224 11.5524C5.89001 19.2734 4.46492 26.8242 5.16683 34.2687C8.6551 36.7998 11.9945 38.3313 15.2913 39.3522C16.0996 38.2675 16.8228 37.0976 17.4609 35.864C16.2697 35.4173 15.1424 34.8643 14.0364 34.2262C14.3129 34.0135 14.6107 33.8008 14.8659 33.5881C21.4596 36.6084 28.6063 36.6084 35.1149 33.5881C35.3914 33.8008 35.6679 34.0347 35.9445 34.2262C34.8597 34.8643 33.7111 35.4173 32.52 35.864C33.1368 37.0976 33.8813 38.2675 34.6895 39.3522C37.9864 38.3313 41.3683 36.7998 44.814 34.2687C45.6861 25.6544 43.4527 18.1674 38.9222 11.5524ZM18.3755 29.6744C16.3974 29.6744 14.7808 27.8665 14.7808 25.6756C14.7808 23.4848 16.3548 21.6769 18.3755 21.6769C20.3748 21.6769 22.0126 23.4848 21.9701 25.6756C21.9701 27.8877 20.3748 29.6744 18.3755 29.6744ZM31.6479 29.6744C29.6698 29.6744 28.0533 27.8665 28.0533 25.6756C28.0533 23.4848 29.6273 21.6769 31.6479 21.6769C33.6473 21.6769 35.2851 23.4848 35.2425 25.6756C35.2638 27.8877 33.6898 29.6744 31.6479 29.6744Z" fill="#5868EA"/>
</svg>
