<svg width="27" height="20" viewBox="0 0 27 20" xmlns="http://www.w3.org/2000/svg">
<path d="M22.5495 1.68185C20.8489 0.896987 19.0516 0.322355 17.1714 0C16.9363 0.406447 16.6736 0.967064 16.4939 1.41556C14.4892 1.12123 12.5122 1.12123 10.5351 1.41556C10.3554 0.98108 10.0789 0.420462 9.85768 0C7.96359 0.322355 6.16628 0.896987 4.47957 1.68185C1.0785 6.76945 0.152198 11.7449 0.608438 16.6503C2.87582 18.3181 5.04642 19.3273 7.18936 20C7.71473 19.2852 8.1848 18.5144 8.59956 17.7015C7.82534 17.4071 7.09258 17.0427 6.37366 16.6223C6.55339 16.4821 6.74695 16.342 6.91285 16.2018C11.1988 18.192 15.8441 18.192 20.0747 16.2018C20.2544 16.342 20.4342 16.4961 20.6139 16.6223C19.9088 17.0427 19.1622 17.4071 18.388 17.7015C18.7889 18.5144 19.2728 19.2852 19.7982 20C21.9411 19.3273 24.1394 18.3181 26.3791 16.6503C26.946 10.9741 25.4943 6.04064 22.5495 1.68185ZM9.19406 13.623C7.90829 13.623 6.85755 12.4317 6.85755 10.9881C6.85755 9.5445 7.88064 8.35319 9.19406 8.35319C10.4937 8.35319 11.5582 9.5445 11.5306 10.9881C11.5306 12.4457 10.4937 13.623 9.19406 13.623ZM17.8212 13.623C16.5354 13.623 15.4846 12.4317 15.4846 10.9881C15.4846 9.5445 16.5077 8.35319 17.8212 8.35319C19.1207 8.35319 20.1853 9.5445 20.1577 10.9881C20.1715 12.4457 19.1484 13.623 17.8212 13.623Z" />
</svg>
