<svg width="48" height="48" viewBox="0 0 48 48" fill="none" xmlns="http://www.w3.org/2000/svg">
<path d="M41.2956 5.34863L26.3051 16.4823L29.0772 9.9136L41.2956 5.34863Z" fill="#E2761B" stroke="#E2761B" stroke-width="0.150659" stroke-linecap="round" stroke-linejoin="round"/>
<path d="M6.68928 5.34863L21.5593 16.5878L18.9228 9.9136L6.68928 5.34863ZM35.9021 31.1565L31.9096 37.2733L40.452 39.6236L42.9077 31.2921L35.9021 31.1565ZM5.10736 31.2921L7.54804 39.6236L16.0904 37.2733L12.0979 31.1565L5.10736 31.2921Z" fill="#E4761B" stroke="#E4761B" stroke-width="0.150659" stroke-linecap="round" stroke-linejoin="round"/>
<path d="M15.6083 20.8211L13.2278 24.4218L21.71 24.7985L21.4086 15.6836L15.6083 20.8211ZM32.3766 20.8211L26.5009 15.5781L26.3051 24.7985L34.7721 24.4218L32.3766 20.8211ZM16.0904 37.273L21.1826 34.7872L16.7834 31.3521L16.0904 37.273ZM26.8022 34.7872L31.9096 37.273L31.2015 31.3521L26.8022 34.7872Z" fill="#E4761B" stroke="#E4761B" stroke-width="0.150659" stroke-linecap="round" stroke-linejoin="round"/>
<path d="M31.9096 37.273L26.8023 34.7871L27.209 38.1167L27.1638 39.5178L31.9096 37.273ZM16.0904 37.273L20.8362 39.5178L20.806 38.1167L21.1827 34.7871L16.0904 37.273Z" fill="#D7C1B3" stroke="#D7C1B3" stroke-width="0.150659" stroke-linecap="round" stroke-linejoin="round"/>
<path d="M20.9114 29.1522L16.6628 27.9018L19.661 26.5308L20.9114 29.1522ZM27.0734 29.1522L28.3239 26.5308L31.337 27.9018L27.0734 29.1522Z" fill="#233447" stroke="#233447" stroke-width="0.150659" stroke-linecap="round" stroke-linejoin="round"/>
<path d="M16.0904 37.2731L16.8136 31.1563L12.098 31.2919L16.0904 37.2731ZM31.1865 31.1563L31.9096 37.2731L35.9021 31.2919L31.1865 31.1563ZM34.7722 24.4219L26.3051 24.7985L27.0885 29.1526L28.339 26.5311L31.3522 27.9021L34.7722 24.4219ZM16.6629 27.9021L19.6761 26.5311L20.9115 29.1526L21.71 24.7985L13.2279 24.4219L16.6629 27.9021Z" fill="#CD6116" stroke="#CD6116" stroke-width="0.150659" stroke-linecap="round" stroke-linejoin="round"/>
<path d="M13.2278 24.4219L16.7834 31.3522L16.6629 27.9021L13.2278 24.4219ZM31.3521 27.9021L31.2015 31.3522L34.7721 24.4219L31.3521 27.9021ZM21.71 24.7985L20.9115 29.1526L21.9058 34.29L22.1318 27.5255L21.71 24.7985ZM26.3051 24.7985L25.8983 27.5104L26.0791 34.29L27.0885 29.1526L26.3051 24.7985Z" fill="#E4751F" stroke="#E4751F" stroke-width="0.150659" stroke-linecap="round" stroke-linejoin="round"/>
<path d="M27.0885 29.1528L26.079 34.2903L26.8022 34.7875L31.2014 31.3524L31.3521 27.9023L27.0885 29.1528ZM16.6628 27.9023L16.7834 31.3524L21.1826 34.7875L21.9058 34.2903L20.9114 29.1528L16.6628 27.9023Z" fill="#F6851B" stroke="#F6851B" stroke-width="0.150659" stroke-linecap="round" stroke-linejoin="round"/>
<path d="M27.1638 39.5178L27.209 38.1166L26.8324 37.7852H21.1525L20.806 38.1166L20.8362 39.5178L16.0904 37.2729L17.7476 38.6289L21.1073 40.9641H26.8776L30.2524 38.6289L31.9096 37.2729L27.1638 39.5178Z" fill="#C0AD9E" stroke="#C0AD9E" stroke-width="0.150659" stroke-linecap="round" stroke-linejoin="round"/>
<path d="M26.8022 34.7872L26.079 34.29H21.9058L21.1826 34.7872L20.806 38.1168L21.1525 37.7853H26.8323L27.209 38.1168L26.8022 34.7872Z" fill="#161616" stroke="#161616" stroke-width="0.150659" stroke-linecap="round" stroke-linejoin="round"/>
<path d="M41.9284 17.2055L43.209 11.0586L41.2957 5.34863L26.8023 16.1057L32.3766 20.8213L40.2561 23.1264L42.0038 21.0925L41.2505 20.5501L42.4557 19.4503L41.5217 18.7272L42.7269 17.8081L41.9284 17.2055ZM4.79095 11.0586L6.07156 17.2055L5.258 17.8081L6.46327 18.7272L5.54425 19.4503L6.74952 20.5501L5.99623 21.0925L7.72881 23.1264L15.6083 20.8213L21.1827 16.1057L6.68926 5.34863L4.79095 11.0586Z" fill="#763D16" stroke="#763D16" stroke-width="0.150659" stroke-linecap="round" stroke-linejoin="round"/>
<path d="M40.2561 23.1259L32.3767 20.8208L34.7721 24.4216L31.2015 31.3519L35.9021 31.2916H42.9077L40.2561 23.1259ZM15.6083 20.8208L7.72883 23.1259L5.10736 31.2916H12.0979L16.7834 31.3519L13.2279 24.4216L15.6083 20.8208ZM26.3051 24.7982L26.8023 16.1052L29.0923 9.91309H18.9228L21.1827 16.1052L21.71 24.7982L21.8908 27.5402L21.9059 34.2897H26.0791L26.1092 27.5402L26.3051 24.7982Z" fill="#F6851B" stroke="#F6851B" stroke-width="0.150659" stroke-linecap="round" stroke-linejoin="round"/>
</svg>
