<svg width="38" height="32" viewBox="0 0 38 32" fill="none" xmlns="http://www.w3.org/2000/svg">
<path d="M16.043 31.8081C24.7864 31.8081 31.8743 24.7202 31.8743 15.9768C31.8743 7.23343 24.7864 0.145508 16.043 0.145508C7.29959 0.145508 0.21167 7.23343 0.21167 15.9768C0.21167 24.7202 7.29959 31.8081 16.043 31.8081Z" fill="#2EB6EA"/>
<path d="M15.9514 31.8314C0.188818 31.8314 -6.01999 11.0971 7.88682 2.36816C6.23725 19.6887 15.035 20.0782 23.2141 19.6887C36.8918 19.0472 36.9147 31.8314 36.9147 31.8314H15.9514Z" fill="#1542CD"/>
<path fill-rule="evenodd" clip-rule="evenodd" d="M31.0036 21.1777C28.6209 27.2949 22.7557 31.6479 15.8596 31.8541C16.02 31.8541 16.1804 31.8541 16.3407 31.8541H37.1666C37.1666 31.8541 37.1666 24.3623 31.0036 21.1777Z" fill="#745DDF"/>
</svg>
