<svg width="133" height="46" viewBox="0 0 133 46" fill="none" xmlns="http://www.w3.org/2000/svg">
<path d="M1 10.2778C1 4.87766 5.37766 0.5 10.7778 0.5H35.2222C40.6223 0.5 45 4.87766 45 10.2778V34.7222C45 40.1223 40.6223 44.5 35.2222 44.5H10.7778C5.37766 44.5 1 40.1223 1 34.7222V10.2778Z" fill="#00C471"/>
<path d="M28.0247 14.574V19.4074C25.2444 19.4074 23 21.5663 23 24.2408H18.1011C18.0316 24.2408 17.9752 24.186 17.9761 24.1192C18.044 18.8422 22.523 14.574 28.0247 14.574Z" fill="#FAFAFA"/>
<path d="M38.0741 24.2408H33.0494C33.0494 21.5663 30.805 19.4074 28.0247 19.4074V14.574C33.5686 14.574 38.0741 18.9079 38.0741 24.2408Z" fill="#FAFAFA"/>
<path d="M28.0247 33.9076V29.0742C30.805 29.0742 33.0494 26.9153 33.0494 24.2408H38.0741C38.0741 29.5897 33.5686 33.9076 28.0247 33.9076Z" fill="#FAFAFA"/>
<path d="M17.9753 33.9076V29.0742C20.7556 29.0742 23 26.9153 23 24.2408H27.8989C27.9684 24.2408 28.0248 24.2955 28.0239 24.3624C27.9562 29.655 23.4771 33.9076 17.9753 33.9076Z" fill="#FAFAFA"/>
<path d="M7.92593 24.2408H12.9506C12.9506 26.9153 15.195 29.0742 17.9753 29.0742V33.9076C12.4314 33.9076 7.92593 29.5897 7.92593 24.2408Z" fill="#FAFAFA"/>
<path d="M17.9753 14.574V19.4074C15.195 19.4074 12.9506 21.5663 12.9506 24.2408H7.92593C7.92593 18.9079 12.4314 14.574 17.9753 14.574Z" fill="#FAFAFA"/>
<path d="M22.8113 7.95458C22.8113 7.88771 22.8676 7.8335 22.9371 7.8335H27.8849C27.9544 7.8335 28.0107 7.88771 28.0107 7.95458V13.4842C28.0107 13.5511 27.9543 13.6052 27.8849 13.606C26.1352 13.6238 24.478 14.0126 22.9941 14.6947C22.9097 14.7335 22.8113 14.6748 22.8113 14.5848V7.95458Z" fill="#FAFAFA"/>
<path d="M21.833 15.3962C21.8678 15.3736 21.8888 15.3358 21.8888 15.2954V14.6951C21.8888 14.6282 21.8325 14.574 21.7631 14.574H17.8635V19.4087H18.0143C18.0932 19.4087 18.1653 19.366 18.2019 19.2987C19.0587 17.7235 20.3115 16.3872 21.833 15.3962Z" fill="#FAFAFA"/>
<path d="M24.1251 33.0854C24.0903 33.108 24.0692 33.1458 24.0692 33.1862V33.7865C24.0692 33.8534 24.1256 33.9076 24.195 33.9076H28.0946V29.0737H27.9438C27.8649 29.0737 27.7928 29.1164 27.7562 29.1836C26.8994 30.7588 25.6466 32.0944 24.1251 33.0854Z" fill="#FAFAFA"/>
<path d="M71.7417 9.8527H75.6292V35.0491H71.7417V32.4575C70.278 34.4972 68.1783 35.517 65.4426 35.517C62.971 35.517 60.8593 34.6052 59.1075 32.7814C57.3558 30.9337 56.4799 28.69 56.4799 26.0504C56.4799 23.3868 57.3558 21.1431 59.1075 19.3194C60.8593 17.4956 62.971 16.5837 65.4426 16.5837C68.1783 16.5837 70.278 17.5916 71.7417 19.6073V9.8527ZM61.9871 30.1898C63.067 31.2696 64.4228 31.8096 66.0546 31.8096C67.6863 31.8096 69.0421 31.2696 70.122 30.1898C71.2018 29.086 71.7417 27.7062 71.7417 26.0504C71.7417 24.3946 71.2018 23.0268 70.122 21.947C69.0421 20.8431 67.6863 20.2912 66.0546 20.2912C64.4228 20.2912 63.067 20.8431 61.9871 21.947C60.9073 23.0268 60.3674 24.3946 60.3674 26.0504C60.3674 27.7062 60.9073 29.086 61.9871 30.1898Z" fill="#FAFAFA"/>
<path d="M83.8318 13.6322C83.3519 14.1121 82.7759 14.3521 82.104 14.3521C81.4321 14.3521 80.8442 14.1121 80.3403 13.6322C79.8604 13.1282 79.6204 12.5403 79.6204 11.8684C79.6204 11.1965 79.8604 10.6206 80.3403 10.1407C80.8202 9.63673 81.4081 9.38477 82.104 9.38477C82.7999 9.38477 83.3879 9.63673 83.8678 10.1407C84.3477 10.6206 84.5877 11.1965 84.5877 11.8684C84.5877 12.5403 84.3357 13.1282 83.8318 13.6322ZM80.1603 35.0491V17.0517H84.0478V35.0491H80.1603Z" fill="#FAFAFA"/>
<path d="M98.604 20.7951H94.1407V29.4339C94.1407 30.1778 94.3086 30.7177 94.6446 31.0537C94.9805 31.3656 95.4725 31.5456 96.1204 31.5936C96.7923 31.6176 97.6202 31.6056 98.604 31.5576V35.0491C95.6285 35.4091 93.4928 35.1571 92.1969 34.2932C90.9011 33.4053 90.2532 31.7856 90.2532 29.4339V20.7951H86.9417V17.0517H90.2532V13.1642L94.1407 12.0124V17.0517H98.604V20.7951Z" fill="#FAFAFA"/>
<path d="M111.329 20.7951H106.865V29.4339C106.865 30.1778 107.033 30.7177 107.369 31.0537C107.705 31.3656 108.197 31.5456 108.845 31.5936C109.517 31.6176 110.345 31.6056 111.329 31.5576V35.0491C108.353 35.4091 106.218 35.1571 104.922 34.2932C103.626 33.4053 102.978 31.7856 102.978 29.4339V20.7951H99.6664V17.0517H102.978V13.1642L106.865 12.0124V17.0517H111.329V20.7951Z" fill="#FAFAFA"/>
<path d="M122.611 35.517C119.972 35.517 117.728 34.6052 115.88 32.7814C114.032 30.9577 113.109 28.714 113.109 26.0504C113.109 23.3868 114.032 21.1431 115.88 19.3194C117.728 17.4956 119.972 16.5837 122.611 16.5837C125.275 16.5837 127.518 17.4956 129.342 19.3194C131.19 21.1431 132.114 23.3868 132.114 26.0504C132.114 28.714 131.19 30.9577 129.342 32.7814C127.518 34.6052 125.275 35.517 122.611 35.517ZM118.616 30.1178C119.696 31.1977 121.027 31.7376 122.611 31.7376C124.195 31.7376 125.527 31.1977 126.607 30.1178C127.686 29.038 128.226 27.6822 128.226 26.0504C128.226 24.4186 127.686 23.0628 126.607 21.983C125.527 20.9031 124.195 20.3632 122.611 20.3632C121.027 20.3632 119.696 20.9031 118.616 21.983C117.536 23.0628 116.996 24.4186 116.996 26.0504C116.996 27.6822 117.536 29.038 118.616 30.1178Z" fill="#FAFAFA"/>
</svg>
