<svg width="40" height="36" viewBox="0 0 40 36" fill="none" xmlns="http://www.w3.org/2000/svg">
<path d="M30.2646 11.2292C29.8738 11.0209 29.4378 10.912 28.9949 10.912C28.5521 10.912 28.116 11.0209 27.7252 11.2292L22.0005 14.6146L18.0015 16.8372L12.2768 20.2245C11.886 20.4328 11.45 20.5417 11.0071 20.5417C10.5643 20.5417 10.1282 20.4328 9.73742 20.2245L5.18774 17.5768C4.81328 17.3609 4.50007 17.053 4.27773 16.6823C4.0554 16.3116 3.93127 15.8903 3.9171 15.4583V10.1732C3.90902 9.73654 4.02382 9.30639 4.2484 8.93181C4.47298 8.55723 4.79831 8.2533 5.18727 8.05468L9.73742 5.51573C10.128 5.30658 10.5641 5.19714 11.0071 5.19714C11.4501 5.19714 11.8863 5.30658 12.2768 5.51573L16.8265 8.05515C17.2009 8.27115 17.514 8.57905 17.7363 8.94974C17.9585 9.32044 18.0826 9.74169 18.0967 10.1737V13.5568L22.0005 11.2297V7.95063C22.0111 7.51612 21.8997 7.08733 21.679 6.71289C21.4583 6.33844 21.1371 6.03331 20.7519 5.83211L12.3809 0.966057C11.9904 0.756901 11.5542 0.647461 11.1112 0.647461C10.6682 0.647461 10.232 0.756901 9.84147 0.966057L1.37768 5.83211C0.955131 5.99624 0.594942 6.28917 0.348132 6.6694C0.101323 7.04962 -0.0195944 7.49787 0.00250892 7.95063V17.7891C-0.00367637 18.224 0.112081 18.6519 0.336661 19.0244C0.561241 19.3968 0.885662 19.6989 1.27316 19.8964L9.73742 24.7742C10.1282 24.9824 10.5643 25.0914 11.0071 25.0914C11.45 25.0914 11.886 24.9824 12.2768 24.7742L18.0015 21.4933L21.9161 19.1662L27.6212 15.896C28.012 15.6878 28.448 15.5788 28.8909 15.5788C29.3337 15.5788 29.7698 15.6878 30.1606 15.896L34.7103 18.4355C35.0845 18.6515 35.3974 18.9594 35.6194 19.3302C35.8415 19.7009 35.9652 20.1221 35.979 20.554V25.7387C35.9871 26.175 35.8725 26.6048 35.6482 26.979C35.4238 27.3533 35.0988 27.6569 34.7103 27.8554L30.1606 30.4989C29.77 30.708 29.3339 30.8175 28.8909 30.8175C28.4478 30.8175 28.0117 30.708 27.6212 30.4989L23.0715 27.9594C22.6971 27.744 22.384 27.4365 22.1616 27.0662C21.9393 26.6959 21.8151 26.275 21.8008 25.8433V22.4452L18.0015 24.6659V28.0494C17.9932 28.486 18.1077 28.9161 18.332 29.2907C18.5564 29.6653 18.8815 29.9693 19.2703 30.168L27.7346 35.0335C28.1255 35.2427 28.5619 35.3521 29.0052 35.3521C29.4485 35.3521 29.885 35.2427 30.2759 35.0335L38.7397 30.167C39.1116 29.9502 39.4224 29.6425 39.6428 29.2726C39.8631 28.9028 39.9859 28.483 39.9995 28.0527V18.21C40.0077 17.7735 39.8928 17.3436 39.6681 16.9693C39.4434 16.595 39.1179 16.2914 38.7289 16.0934L30.2646 11.2292Z" fill="#7950DD"/>
</svg>
