<svg width="49" height="48" viewBox="0 0 49 48" fill="none" xmlns="http://www.w3.org/2000/svg">
<g clip-path="url(#clip0_67_1673)">
<path d="M24.6666 0C18.3029 0 12.1941 2.53013 7.69788 7.02938C3.19699 11.5304 0.667873 17.6347 0.666626 24C0.666626 30.3626 3.19788 36.4714 7.69788 40.9706C12.1941 45.4699 18.3029 48 24.6666 48C31.0304 48 37.1391 45.4699 41.6354 40.9706C46.1354 36.4714 48.6666 30.3626 48.6666 24C48.6666 17.6374 46.1354 11.5286 41.6354 7.02938C37.1391 2.53013 31.0304 0 24.6666 0Z" fill="url(#paint0_linear_67_1673)"/>
<path d="M11.5304 23.7466C18.5279 20.6986 23.1929 18.689 25.5254 17.7181C32.1929 14.9457 33.5766 14.4642 34.4804 14.4479C34.6791 14.4447 35.1216 14.4938 35.4104 14.7273C35.6504 14.9241 35.7179 15.1904 35.7516 15.3773C35.7816 15.5641 35.8229 15.9897 35.7891 16.322C35.4291 20.117 33.8654 29.3262 33.0704 33.5768C32.7366 35.3753 32.0729 35.9783 31.4316 36.0372C30.0366 36.1655 28.9791 35.1162 27.6291 34.2316C25.5179 32.8467 24.3254 31.985 22.2741 30.6338C19.9041 29.0723 21.4416 28.214 22.7916 26.8115C23.1441 26.4443 29.2866 20.8587 29.4029 20.3521C29.4179 20.2887 29.4329 20.0525 29.2904 19.928C29.1516 19.8031 28.9454 19.8458 28.7954 19.8796C28.5816 19.9276 25.2104 22.1581 18.6704 26.5707C17.7141 27.2285 16.8479 27.5491 16.0679 27.5322C15.2129 27.5138 13.5629 27.0477 12.3366 26.6495C10.8366 26.1608 9.64037 25.9025 9.74537 25.0726C9.79787 24.6406 10.3941 24.1985 11.5304 23.7466Z" fill="white"/>
</g>
<defs>
<linearGradient id="paint0_linear_67_1673" x1="2400.67" y1="0" x2="2400.67" y2="4800" gradientUnits="userSpaceOnUse">
<stop stop-color="#2AABEE"/>
<stop offset="1" stop-color="#229ED9"/>
</linearGradient>
<clipPath id="clip0_67_1673">
<rect width="48" height="48" fill="white" transform="translate(0.666626)"/>
</clipPath>
</defs>
</svg>
