<svg width="49" height="48" viewBox="0 0 49 48" fill="none" xmlns="http://www.w3.org/2000/svg">
<path d="M17.1359 9.24195C16.6977 9.174 16.6792 9.16598 16.8854 9.13433C17.2806 9.07351 18.2137 9.15638 18.8567 9.30923C20.3579 9.66608 21.7238 10.5802 23.1819 12.2036L23.5693 12.6349L24.1234 12.5458C26.4579 12.1706 28.8328 12.4688 30.8192 13.3864C31.3656 13.6388 32.2272 14.1414 32.3348 14.2706C32.3692 14.3117 32.4322 14.5766 32.4748 14.8593C32.6223 15.8373 32.5485 16.587 32.2493 17.1469C32.0866 17.4516 32.0775 17.5481 32.1869 17.8089C32.2743 18.017 32.5178 18.171 32.759 18.1707C33.2527 18.17 33.784 17.372 34.0301 16.2617L34.1279 15.8207L34.3217 16.0401C35.3843 17.244 36.2189 18.8858 36.3622 20.0545L36.3995 20.3591L36.221 20.0822C35.9135 19.6055 35.6047 19.281 35.2092 19.0193C34.4963 18.5476 33.7424 18.3871 31.7461 18.2819C29.943 18.1868 28.9226 18.0329 27.9107 17.7029C26.1891 17.1416 25.3212 16.394 23.2762 13.7109C22.3679 12.5192 21.8064 11.8598 21.248 11.3288C19.979 10.1223 18.732 9.48953 17.1359 9.24195Z" fill="#FF007A"/>
<path d="M32.7416 11.9026C32.787 11.104 32.8953 10.5772 33.113 10.0963C33.1992 9.90585 33.28 9.75 33.2924 9.75C33.3049 9.75 33.2674 9.89055 33.2092 10.0623C33.0508 10.5292 33.0249 11.1676 33.1339 11.9106C33.2723 12.8532 33.351 12.9892 34.3473 14.0074C34.8146 14.485 35.3581 15.0874 35.5552 15.346L35.9134 15.8162L35.5552 15.4801C35.117 15.0692 34.1094 14.2678 33.8868 14.1532C33.7376 14.0764 33.7154 14.0776 33.6233 14.1693C33.5385 14.2537 33.5206 14.3806 33.5089 14.9803C33.4906 15.9151 33.3631 16.5151 33.0556 17.115C32.8894 17.4394 32.8631 17.3702 33.0136 17.004C33.126 16.7305 33.1374 16.6103 33.1366 15.7054C33.1348 13.8873 32.919 13.4502 31.6531 12.7014C31.3324 12.5117 30.8041 12.2381 30.479 12.0934C30.1539 11.9488 29.8957 11.8227 29.905 11.8133C29.9409 11.7776 31.1754 12.1379 31.6723 12.329C32.4113 12.6133 32.5333 12.6502 32.6231 12.6159C32.6833 12.5929 32.7124 12.4177 32.7416 11.9026Z" fill="#FF007A"/>
<path d="M17.987 15.0133C17.0975 13.7886 16.5471 11.9109 16.6662 10.5072L16.7031 10.0728L16.9055 10.1097C17.2859 10.1791 17.9414 10.4232 18.2485 10.6096C19.091 11.1213 19.4557 11.7949 19.8268 13.5248C19.9355 14.0314 20.078 14.6048 20.1437 14.799C20.2493 15.1114 20.6485 15.8412 20.973 16.3152C21.2068 16.6566 21.0515 16.8183 20.5348 16.7717C19.7456 16.7004 18.6767 15.9627 17.987 15.0133Z" fill="#FF007A"/>
<path d="M31.6625 24.1282C27.5053 22.4543 26.0411 21.0014 26.0411 18.55C26.0411 18.1892 26.0536 17.894 26.0687 17.894C26.0838 17.894 26.2447 18.0131 26.4261 18.1586C27.2691 18.8348 28.2131 19.1236 30.8265 19.5048C32.3643 19.7292 33.2297 19.9104 34.028 20.1752C36.5654 21.0167 38.1353 22.7244 38.5097 25.0505C38.6185 25.7264 38.5547 26.9938 38.3783 27.6618C38.2391 28.1894 37.8142 29.1404 37.7015 29.1769C37.6702 29.187 37.6396 29.0673 37.6316 28.9043C37.5888 28.031 37.1474 27.1806 36.4062 26.5436C35.5634 25.8194 34.4311 25.2428 31.6625 24.1282Z" fill="#FF007A"/>
<path d="M28.7441 24.8236C28.692 24.5137 28.6017 24.1178 28.5433 23.944L28.4373 23.6279L28.6343 23.8491C28.9069 24.1551 29.1224 24.5468 29.305 25.0683C29.4444 25.4664 29.46 25.5848 29.459 26.2317C29.4579 26.8668 29.4405 26.9999 29.3118 27.3582C29.1089 27.9233 28.857 28.3239 28.4344 28.754C27.675 29.5268 26.6987 29.9547 25.2898 30.1322C25.0449 30.1631 24.3311 30.215 23.7036 30.2477C22.122 30.3299 21.0812 30.4998 20.1459 30.8282C20.0115 30.8755 19.8914 30.9041 19.8792 30.892C19.8414 30.8543 20.4782 30.4747 21.0042 30.2213C21.7458 29.8641 22.484 29.6692 24.1381 29.3937C24.9552 29.2576 25.7991 29.0925 26.0133 29.0268C28.0368 28.4064 29.0769 26.8054 28.7441 24.8236Z" fill="#FF007A"/>
<path d="M30.6498 28.2079C30.0975 27.0205 29.9707 25.8741 30.2732 24.8049C30.3056 24.6907 30.3577 24.5972 30.389 24.5972C30.4203 24.5972 30.5506 24.6677 30.6786 24.7538C30.9331 24.9251 31.4436 25.2137 32.8036 25.9552C34.5007 26.8805 35.4683 27.5969 36.1264 28.4155C36.7026 29.1324 37.0592 29.9489 37.2309 30.9445C37.328 31.5085 37.2711 32.8655 37.1264 33.4334C36.6701 35.224 35.6096 36.6305 34.097 37.4512C33.8754 37.5714 33.6765 37.6702 33.655 37.6706C33.6334 37.671 33.7141 37.4657 33.8344 37.2143C34.3432 36.1507 34.4011 35.1161 34.0165 33.9644C33.7809 33.2593 33.3007 32.3989 32.331 30.9447C31.2036 29.2541 30.9271 28.8041 30.6498 28.2079Z" fill="#FF007A"/>
<path d="M15.0347 34.6144C16.5775 33.3118 18.497 32.3865 20.2455 32.1024C20.999 31.98 22.2543 32.0286 22.9521 32.2071C24.0707 32.4934 25.0712 33.1345 25.5915 33.8984C26.1001 34.6449 26.3183 35.2955 26.5454 36.743C26.635 37.314 26.7325 37.8873 26.762 38.0172C26.9325 38.7673 27.2645 39.3669 27.6758 39.6681C28.3292 40.1463 29.4543 40.176 30.561 39.7443C30.7489 39.6711 30.9119 39.6204 30.9234 39.6318C30.9635 39.6717 30.4063 40.0448 30.0131 40.2411C29.4841 40.5054 29.0634 40.6076 28.5044 40.6076C27.4908 40.6076 26.6492 40.0919 25.947 39.0405C25.8089 38.8335 25.4982 38.2137 25.2568 37.6632C24.5154 35.9721 24.1493 35.457 23.2884 34.8932C22.5392 34.4026 21.5731 34.3148 20.8463 34.6712C19.8915 35.1393 19.6251 36.3594 20.309 37.1326C20.5807 37.4399 21.0875 37.7049 21.502 37.7565C22.2773 37.8529 22.9436 37.2631 22.9436 36.4803C22.9436 35.9721 22.7482 35.682 22.2564 35.4601C21.5847 35.157 20.8628 35.5113 20.8662 36.1423C20.8677 36.4113 20.9849 36.5803 21.2546 36.7023C21.4276 36.7806 21.4316 36.7869 21.2905 36.7575C20.6742 36.6297 20.5298 35.8868 21.0254 35.3935C21.6203 34.8014 22.8505 35.0627 23.273 35.871C23.4504 36.2104 23.471 36.8865 23.3163 37.2948C22.97 38.2086 21.9602 38.6892 20.9359 38.4276C20.2385 38.2496 19.9546 38.0568 19.1138 37.1907C17.6527 35.6857 17.0855 35.394 14.9791 35.0652L14.5754 35.0022L15.0347 34.6144Z" fill="#FF007A"/>
<path fill-rule="evenodd" clip-rule="evenodd" d="M4.01736 0.900233C8.89669 6.82229 16.4191 16.0426 16.7926 16.5588C17.1009 16.985 16.9849 17.3682 16.4567 17.6685C16.1629 17.8355 15.5589 18.0047 15.2565 18.0047C14.9145 18.0047 14.5293 17.84 14.2487 17.5739C14.0503 17.3857 13.2499 16.1905 11.4021 13.3235C9.98832 11.1297 8.80512 9.30982 8.77287 9.27938C8.69824 9.20888 8.69952 9.21128 11.258 13.7891C12.8645 16.6636 13.4068 17.6798 13.4068 17.8157C13.4068 18.0922 13.3314 18.2375 12.9904 18.6179C12.4219 19.2521 12.1678 19.9646 11.9844 21.4394C11.7786 23.0927 11.2004 24.2605 9.59779 26.2592C8.65969 27.4292 8.50617 27.6436 8.26947 28.1152C7.97127 28.709 7.88929 29.0416 7.85607 29.7914C7.82097 30.5843 7.88937 31.0964 8.13162 31.8545C8.34364 32.5181 8.56497 32.9563 9.13084 33.8328C9.61917 34.5891 9.90042 35.1512 9.90042 35.3711C9.90042 35.546 9.93379 35.5462 10.6905 35.3754C12.5014 34.9664 13.9719 34.2472 14.799 33.3658C15.3108 32.8202 15.4309 32.519 15.4348 31.7714C15.4374 31.2824 15.4202 31.18 15.288 30.8987C15.0729 30.4408 14.6811 30.0601 13.8177 29.4699C12.6865 28.6966 12.2034 28.074 12.0699 27.2178C11.9604 26.5153 12.0874 26.0196 12.7132 24.708C13.361 23.3504 13.5215 22.7718 13.6301 21.4034C13.7002 20.5192 13.7973 20.1705 14.0514 19.8907C14.3163 19.5988 14.5548 19.5 15.2104 19.4104C16.2793 19.2644 16.9599 18.9878 17.5194 18.4723C18.0048 18.0251 18.2079 17.5941 18.2391 16.9454L18.2627 16.4537L17.9915 16.1375C17.0093 14.9922 3.35959 0 3.29914 0C3.28623 0 3.60944 0.405134 4.01736 0.900233ZM10.4517 30.6885C10.6738 30.2953 10.5558 29.7896 10.1844 29.5427C9.83337 29.3093 9.28812 29.4192 9.28812 29.7233C9.28812 29.8161 9.33949 29.8837 9.45514 29.9432C9.64984 30.0434 9.66402 30.1561 9.51079 30.3864C9.35562 30.6197 9.36814 30.8247 9.54612 30.9641C9.83299 31.1887 10.239 31.0652 10.4517 30.6885Z" fill="#FF007A"/>
<path fill-rule="evenodd" clip-rule="evenodd" d="M18.9373 19.6685C18.4355 19.8226 17.9477 20.3544 17.7967 20.9121C17.7046 21.2523 17.7568 21.8491 17.8948 22.0334C18.1177 22.331 18.3333 22.4095 18.917 22.4054C20.0597 22.3974 21.0532 21.9073 21.1687 21.2945C21.2634 20.7923 20.827 20.0963 20.2261 19.7907C19.9159 19.6331 19.2564 19.5705 18.9373 19.6685ZM20.2732 20.7131C20.4494 20.4627 20.3723 20.192 20.0726 20.009C19.5019 19.6605 18.6387 19.9489 18.6387 20.4881C18.6387 20.7566 19.0888 21.0494 19.5014 21.0494C19.776 21.0494 20.1518 20.8856 20.2732 20.7131Z" fill="#FF007A"/>
</svg>
